<?xml version="1.0" encoding="iso-8859-1"?>
<!-- Generator: Adobe Illustrator 21.0.0, SVG Export Plug-In . SVG Version: 6.00 Build 0)  -->
<svg xmlns="http://www.w3.org/2000/svg" xmlns:xlink="http://www.w3.org/1999/xlink" version="1.1" id="Capa_1" x="0px" y="0px" viewBox="0 0 512 512" style="enable-background:new 0 0 512 512;" xml:space="preserve" width="512px" height="512px">
<g>
	<g>
		<g>
			<path d="M211.362,310.263c-3.021-3.624-8.408-4.113-12.032-1.092c-3.624,3.021-4.113,8.408-1.092,12.032l42.667,51.2     c1.507,1.813,3.697,2.922,6.05,3.063h0.512c2.179-0.004,4.275-0.837,5.862-2.33l153.6-145.067     c3.426-3.238,3.579-8.64,0.341-12.066c-3.238-3.426-8.64-3.579-12.066-0.341L248.209,354.492L211.362,310.263z" fill="#FFFFFF"/>
			<path d="M153.6,418.133h204.8c9.426,0,17.067-7.641,17.067-17.067v-102.4c0-4.713-3.82-8.533-8.533-8.533     s-8.533,3.82-8.533,8.533v102.4H153.6v-204.8h204.8v8.533c0,4.713,3.82,8.533,8.533,8.533s8.533-3.821,8.533-8.533v-17.067     c0-4.713-3.82-8.533-8.533-8.533H153.6c-9.426,0-17.067,7.641-17.067,17.067v204.8     C136.533,410.492,144.174,418.133,153.6,418.133z" fill="#FFFFFF"/>
			<path d="M426.667,34.133H409.6V25.6C409.6,11.461,398.139,0,384,0s-25.6,11.461-25.6,25.6v8.533H153.6V25.6     C153.6,11.461,142.139,0,128,0s-25.6,11.461-25.6,25.6v8.533H85.333c-18.851,0-34.133,15.282-34.133,34.133v401.067     c0.028,23.552,19.114,42.638,42.667,42.667h324.267c23.552-0.028,42.638-19.114,42.667-42.667V68.267     C460.8,49.415,445.518,34.133,426.667,34.133z M375.467,25.6c0-4.713,3.82-8.533,8.533-8.533s8.533,3.82,8.533,8.533v34.133     c0,4.713-3.82,8.533-8.533,8.533s-8.533-3.82-8.533-8.533V25.6z M119.467,25.6c0-4.713,3.82-8.533,8.533-8.533     c4.713,0,8.533,3.82,8.533,8.533v34.133c0,4.713-3.82,8.533-8.533,8.533c-4.713,0-8.533-3.82-8.533-8.533V25.6z M443.733,469.333     c0,14.138-11.462,25.6-25.6,25.6H93.867c-14.138,0-25.6-11.461-25.6-25.6V119.467h375.467V469.333z M443.733,102.4H68.267V68.267     c0-9.426,7.641-17.067,17.067-17.067H102.4v8.533c0,14.138,11.462,25.6,25.6,25.6s25.6-11.461,25.6-25.6V51.2h204.8v8.533     c0,14.138,11.461,25.6,25.6,25.6s25.6-11.461,25.6-25.6V51.2h17.067c9.426,0,17.067,7.641,17.067,17.067V102.4z" fill="#FFFFFF"/>
		</g>
	</g>
</g>
<g>
</g>
<g>
</g>
<g>
</g>
<g>
</g>
<g>
</g>
<g>
</g>
<g>
</g>
<g>
</g>
<g>
</g>
<g>
</g>
<g>
</g>
<g>
</g>
<g>
</g>
<g>
</g>
<g>
</g>
</svg>
