<?xml version="1.0" encoding="iso-8859-1"?>
<!-- Generator: Adobe Illustrator 19.0.0, SVG Export Plug-In . SVG Version: 6.00 Build 0)  -->
<svg xmlns="http://www.w3.org/2000/svg" xmlns:xlink="http://www.w3.org/1999/xlink" version="1.1" id="Capa_1" x="0px" y="0px" viewBox="0 0 368.004 368.004" style="enable-background:new 0 0 368.004 368.004;" xml:space="preserve" width="512px" height="512px">
<g>
	<g>
		<path d="M268.798,1.604c-3.528-2.656-8.544-1.928-11.192,1.6l-45.608,60.8h-56l-45.6-60.8c-2.648-3.528-7.672-4.264-11.192-1.6    c-3.536,2.648-4.256,7.664-1.6,11.2l46.04,61.384l-5.968,44.76l-25.6,192c-0.384,2.872,0.816,5.72,3.136,7.456l64,48    c1.416,1.064,3.104,1.6,4.8,1.6c1.544,0,3.096-0.448,4.44-1.344l72-48c2.616-1.744,3.968-4.864,3.456-7.976l-32-192l-7.44-44.624    l45.928-61.256C273.054,9.268,272.334,4.252,268.798,1.604z M159.006,80.004h50.216l5.328,32h-59.816L159.006,80.004z     M247.254,308.212l-62.984,41.992l-55.728-41.792l24.064-180.408h64.616L247.254,308.212z" fill="#FFFFFF"/>
	</g>
</g>
<g>
</g>
<g>
</g>
<g>
</g>
<g>
</g>
<g>
</g>
<g>
</g>
<g>
</g>
<g>
</g>
<g>
</g>
<g>
</g>
<g>
</g>
<g>
</g>
<g>
</g>
<g>
</g>
<g>
</g>
</svg>
